<svg id="OBJECTS" xmlns="http://www.w3.org/2000/svg" viewBox="0 0 138.63 61.4"><defs><style>.cls-1{fill:#e50000;}.cls-2{fill:#333;}</style></defs><title>Nishans Media</title><polygon class="cls-1" points="29.45 27.68 24.29 19.93 20.41 19.93 15.25 38 21 38 23.58 28.96 29.45 38 34.61 38 34.61 19.93 29.45 19.93 29.45 27.68"/><rect class="cls-1" x="35.9" y="19.93" width="5.16" height="18.06"/><polygon class="cls-1" points="42.35 31.55 51.38 31.55 51.38 32.84 42.35 32.84 42.35 38 56.54 38 56.54 26.38 47.51 26.38 47.51 25.09 56.54 25.09 56.54 19.93 42.35 19.93 42.35 31.55"/><polygon class="cls-1" points="66.87 26.38 62.99 26.38 62.99 19.93 57.83 19.93 57.83 38 62.99 38 62.99 31.55 66.87 31.55 66.87 38 72.03 38 72.03 19.93 66.87 19.93 66.87 26.38"/><path class="cls-1" d="M73.32,38h5.16V34.13h3.87V38h5.16V19.93H73.32Zm5.16-12.91h3.87V29H78.48Z"/><polygon class="cls-1" points="97.83 27.68 93.96 19.93 88.8 19.93 88.8 38 93.96 38 93.96 30.25 97.83 38 103 38 103 19.93 97.83 19.93 97.83 27.68"/><path class="cls-1" d="M106,23.35a2.65,2.65,0,0,1,.66,1.86,5.75,5.75,0,0,1-1.06,3l4.08-4.87-1.86-2.1Z"/><polygon class="cls-1" points="124.89 25.09 124.89 19.93 110.7 19.93 110.7 31.55 119.73 31.55 119.73 32.84 110.7 32.84 110.7 38 124.89 38 124.89 26.38 115.86 26.38 115.86 25.09 124.89 25.09"/><path class="cls-2" d="M107.5,42.18a1.07,1.07,0,0,0-.15.51.94.94,0,0,0,.55.86.78.78,0,0,0,.28.05,1,1,0,0,0,.82-.47,1.17,1.17,0,0,0,.13-.51.92.92,0,0,0-.88-.92A.89.89,0,0,0,107.5,42.18Z"/><path class="cls-2" d="M105.31,39.8c2.14-3.75,3-5.63,3-6.46,0-.27-.09-.42-.27-.49a.23.23,0,0,0-.11,0c-1,0-3.24,4.12-4.89,8.93a7.14,7.14,0,0,1-1.22,2.39c-.5.77-.64,1-.72,1s-.07-.06-.1-.17a1.49,1.49,0,0,0-1.38-1c-1.35,0-3.16,1.64-4.07,3.68-.16.09-.34.21-.55.35-2.73,1.81-4.34,2.61-5.36,2.61a1.17,1.17,0,0,1-1.25-1.42c0-.63.21-1.25.55-1.25a.56.56,0,0,1,.15,0,1.53,1.53,0,0,0,.69.14c1.32,0,2.91-1.35,2.91-2.52a1.07,1.07,0,0,0-.14-.57,1.16,1.16,0,0,0-1.06-.56,3.35,3.35,0,0,0-1.94.8,2.13,2.13,0,0,1-.55.33,1.05,1.05,0,0,0-.77.92,2.21,2.21,0,0,1-.24.56h0l-.25.14c-3.35,1.88-5.47,2.83-6.92,2.83S78.53,49,77.76,46.82,76.61,44.1,75.7,44.1h-.22c-1,.1-1.9.81-5,4.08a6.77,6.77,0,0,1-1,1h0s0-.07,0-.18c0-.44.15-1.61.41-3.41A36.35,36.35,0,0,0,70.36,41,2.32,2.32,0,0,0,70,39.51a1,1,0,0,0-.84-.44c-1.43,0-3.93,2.58-8.36,8.45-1.31,1.75-1.77,2.37-3.58,4.93-2.56,3.61-3.9,5.31-4.21,5.31,0,0-.07,0-.07-.11v0c0-3.07,5.28-14.57,9.53-20.74.8-1.17,1.09-1.53,1.31-1.53a.14.14,0,0,1,.11,0,.53.53,0,0,0,.31.11c.39,0,.7-.45.7-1A1.45,1.45,0,0,0,64.8,34c-.15-.39-.39-.57-.68-.57-.71,0-1.85,1-3.27,2.89-5.1,6.84-9.33,16.72-9.33,20.79,0,1,.22,1.58.71,1.8a1.44,1.44,0,0,0,.44.09c.88,0,2-1.28,5.2-5.82,5.57-7.84,9-12,10.75-13a.47.47,0,0,1,.24-.07c.16,0,.25.18.25.67a27.32,27.32,0,0,1-.38,3.44,37.18,37.18,0,0,0-.49,4.58c0,1,.2,1.29.6,1.48a.91.91,0,0,0,.35.09c.51,0,1.09-.51,2.36-1.9C73.67,46.14,75,45,75.57,45a.34.34,0,0,1,.24.07,4.28,4.28,0,0,1,.75,1.69c1,3.07,2.12,4.37,4,4.37a4.64,4.64,0,0,0,.88-.08,25.22,25.22,0,0,0,6-2.63,3.15,3.15,0,0,0-.12.84,2.07,2.07,0,0,0,1.47,2.09,4,4,0,0,0,.75.07,6.66,6.66,0,0,0,.87-.07,16.36,16.36,0,0,0,4.72-2.5A5.8,5.8,0,0,0,95,50.19v.18c0,1,.35,1.54.88,1.54,1.06,0,3-2,5.43-5.62.33-.49.62-.91.64-.95s-.08.4-.17.8a36.63,36.63,0,0,0-1,7.92c0,1.8.24,3.08.73,3.39a.51.51,0,0,0,.29.09.55.55,0,0,0,.28-.07.47.47,0,0,0,.24-.41c0-.11,0-.22-.15-.23s-.27-.43-.27-2.35a37.73,37.73,0,0,1,1.77-10.57A12.56,12.56,0,0,1,105.31,39.8ZM90.93,45.67a1.65,1.65,0,0,1,.59-.15c.07,0,.13,0,.13,0,0,.2-.54.71-.94.91a1.12,1.12,0,0,1-.45.11c-.17,0-.26,0-.26-.18A2.7,2.7,0,0,1,90.93,45.67ZM97.33,50c-.42.39-.69.57-.8.57s-.09,0-.09-.13v-.05c.14-1.38,2.17-4.1,2.89-4.1a.19.19,0,0,1,.18.09,2.46,2.46,0,0,0,.33.37.08.08,0,0,1,0,.07C99.87,47.26,98.5,49,97.33,50Z"/><path class="cls-2" d="M124.58,47a.12.12,0,0,0-.11,0c-.13,0-.33.14-.69.45-1.17,1-2,1.5-2.66,1.5a1.74,1.74,0,0,1-1.42-1c-.42-.64-.75-1-1.14-1-.54,0-1.22.75-2.5,2.43a13.94,13.94,0,0,1-1.68,1.85.15.15,0,0,1-.08,0s0,0,0-.06,0-.13,0-.26c.19-1.86,1.87-4.33,2.84-4.33a.66.66,0,0,1,.25.07.66.66,0,0,0,.41.13.75.75,0,0,0,.67-.82,1.09,1.09,0,0,0-.12-.51,1.45,1.45,0,0,0-1.34-.81,2.84,2.84,0,0,0-2,1,7.15,7.15,0,0,0-1.13,1.61l-.13.09c-3.06,2.14-5.27,3.24-6.5,3.24a1.38,1.38,0,0,1-.64-.13,1.08,1.08,0,0,1-.47-1,6.65,6.65,0,0,1,1.26-3.32,2.22,2.22,0,0,0,.51-1.13c0-.25-.15-.44-.46-.58a.67.67,0,0,0-.38-.11c-.7,0-1.39,1-1.87,2.7a7.86,7.86,0,0,0-.31,2c0,1.39.57,2.29,1.67,2.49a3.15,3.15,0,0,0,.44,0c1.17,0,2.81-.73,5.25-2.32.43-.28.79-.53,1.1-.76a7.23,7.23,0,0,0-.41,2.21,1.73,1.73,0,0,0,.66,1.62.77.77,0,0,0,.46.13c.58,0,1.29-.69,2.76-2.61,1-1.34,1.52-1.92,1.68-1.92l0,0a1.66,1.66,0,0,1,.22.32,2.44,2.44,0,0,0,2.1,1.52,4.82,4.82,0,0,0,2.94-1.48c.55-.47.84-.88.84-1.11A.22.22,0,0,0,124.58,47Z"/><path class="cls-2" d="M14.73,15.91a39.54,39.54,0,0,0-4,4.8l-.25.36A36.5,36.5,0,0,0,8.33,24.6a30.15,30.15,0,0,1,2.58-1.81c.58-.37,1.22-.75,1.92-1.13l.1-.05a28.5,28.5,0,0,1,3.23-1.5h0a20.12,20.12,0,0,1,7.12-1.5,2.84,2.84,0,0,0,.38-2.34,3,3,0,0,1,1.05,2.34c6.36-.07,12.47-1.58,15.11-6A7,7,0,0,0,35.3,11a9.63,9.63,0,0,1,5.4-.43A9.94,9.94,0,0,0,41,9.08a2.51,2.51,0,0,0,0-.27l0-.09a13.4,13.4,0,0,1,1.66-2.8,10.21,10.21,0,0,1,3.16-2.76C37.13,2.35,26.38,4,14.73,15.91Zm9.43-.35-2-1.43.68,2.38a2,2,0,0,1-.05,1.24A21.58,21.58,0,0,0,16,19.24h0l-.3.12h0a33.29,33.29,0,0,0-3.17,1.48l-.09.06c-.44.23-.87.48-1.29.73l0-.07.24-.35a39.77,39.77,0,0,1,3.92-4.69A44.31,44.31,0,0,1,29.57,6.38c.77-.33,1.55-.62,2.33-.88C30.38,7.32,27,12.14,28,17.56c-.87.09-1.73.14-2.55.16A3.47,3.47,0,0,0,24.16,15.56Z"/></svg>